<?xml version="1.0" encoding="UTF-8"?>
<svg id="Layer_2" data-name="Layer 2" xmlns="http://www.w3.org/2000/svg" viewBox="0 0 125.49 125.49">
  <defs>
    <style>
      .cls-1, .cls-2, .cls-3, .cls-4, .cls-5 {
        stroke: #231f20;
      }

      .cls-1, .cls-2, .cls-3, .cls-5 {
        stroke-miterlimit: 10;
      }

      .cls-1, .cls-2, .cls-5 {
        fill: none;
      }

      .cls-2 {
        stroke-width: 3px;
      }

      .cls-3, .cls-4, .cls-6, .cls-7 {
        fill: #231f20;
      }

      .cls-4 {
        stroke-linecap: round;
        stroke-linejoin: round;
      }

      .cls-6 {
        font-family: FuturaBT-Heavy, 'Futura Hv BT';
        font-size: 18.92px;
        font-weight: 800;
      }

      .cls-5 {
        stroke-width: .75px;
      }
    </style>
  </defs>
  <g id="Layer_1-2" data-name="Layer 1">
    <g>
      <g>
        <path class="cls-1" d="m61.94,43.67l.39,7.3c.06,1.1-.47,2.15-1.4,2.75l-6.13,3.98c-.92.6-2.09.66-3.07.16l-6.52-3.32c-.98-.5-1.62-1.48-1.68-2.58l-.31-5.99c-.05-.88.29-1.73.91-2.35,1.25-1.24,2.64-2.37,4.17-3.36,1.24-.81,2.53-1.5,3.85-2.07.83-.36,1.78-.33,2.59.08l5.53,2.82c.98.5,1.62,1.48,1.68,2.58Z"/>
        <path class="cls-1" d="m54.04,60.63l2.01,7.05c.3,1.06.02,2.2-.75,2.99l-5.1,5.26c-.76.79-1.88,1.11-2.94.84l-6.09-1.53c-.89-.22-1.63-.84-2.04-1.66-1.43-2.88-2.28-5.94-2.57-9.01-.09-.92.22-1.83.86-2.5l4.38-4.52c.75-.77,1.85-1.09,2.9-.83l7.15,1.79c1.05.26,1.89,1.07,2.19,2.12Z"/>
        <path class="cls-1" d="m88.26,65.31c-.43,3.34-1.49,6.59-3.17,9.55-.41.72-1.12,1.22-1.93,1.42l-5.47,1.33c-1.07.26-2.21-.07-2.97-.87l-5.05-5.29c-.75-.79-1.03-1.92-.72-2.97l2.05-7.02c.31-1.07,1.17-1.89,2.25-2.15l7.09-1.72c1.07-.26,2.2.07,2.96.87l4.14,4.34c.64.67.93,1.6.81,2.52Z"/>
        <path class="cls-1" d="m82.8,47.6l-.89,5.89c-.16,1.08-.89,2-1.91,2.4l-6.82,2.68c-1.02.4-2.18.23-3.03-.46l-5.73-4.57c-.86-.68-1.28-1.77-1.12-2.86l1.09-7.24c.16-1.08.89-2,1.91-2.4l5.51-2.16c.89-.35,1.89-.29,2.74.16,2.77,1.45,5.31,3.41,7.44,5.86.65.74.95,1.73.8,2.7Z"/>
        <path class="cls-3" d="m84.26,47.89c3.19,4.91,4.51,10.49,4.15,15.91l-6.33-6.63-10.57,2.57-3.05,10.43,7.5,7.86,8.46-2.06c-1.94,3.07-4.24,6.37-7.8,7.88-.87.37-.61-.21-.61-.21l-2.69-4.43-4.48-7.76c-.59-1.02-1.68-1.65-2.86-1.65h-7.05c-1.18,0-2.27.63-2.86,1.65l-4.49,7.76-2.25,3.94c-3.24-2.19-3.66-1.86-8.69-6.93-.37-.37-.54-.87-.8-1.32l9.13,2.29,7.57-7.81-2.99-10.45-10.54-2.64-6.55,6.77c-.26-6.68,2.07-13.33,6.66-18.41l.48,9.09,9.69,4.93,9.12-5.92-.57-10.85-8.33-4.25c6.47-2.39,13.53-2.04,19.63.71l-8.49,3.33-1.62,10.74,8.5,6.79,10.12-3.97,1.37-9.09c.44.56.85,1.14,1.24,1.75Z"/>
        <path class="cls-1" d="m53.56,58.94l2.99,10.45-7.57,7.81-9.13-2.29c-2.13-3.72-3.23-7.79-3.38-11.84l6.55-6.77,10.54,2.64Z"/>
        <path class="cls-1" d="m61.84,41.89l.57,10.85-9.12,5.92-9.69-4.93-.48-9.09c1.48-1.65,3.21-3.13,5.16-4.4,1.67-1.08,3.42-1.96,5.22-2.61l8.33,4.25Z"/>
        <path class="cls-1" d="m88.4,63.8c-.3,4.3-1.65,8.49-3.98,12.17l-8.46,2.06-7.5-7.86,3.05-10.43,10.57-2.57,6.33,6.63Z"/>
        <path class="cls-1" d="m83.02,46.15l-1.37,9.09-10.12,3.97-8.5-6.79,1.62-10.74,8.49-3.33c3.8,1.7,7.21,4.32,9.88,7.79Z"/>
      </g>
      <text class="cls-6" transform="translate(27.9 78.11) rotate(-102.5) scale(1.1 1)"><tspan x="0" y="0">A</tspan></text>
      <text class="cls-6" transform="translate(24.63 63.99) rotate(-80.09) scale(1.1 1)"><tspan x="0" y="0">D</tspan></text>
      <text class="cls-6" transform="translate(28.01 48.65) rotate(-62.8) scale(1.1 1)"><tspan x="0" y="0">I</tspan></text>
      <text class="cls-6" transform="translate(30.81 42.27) rotate(-47.06) scale(1.1 1)"><tspan x="0" y="0">K</tspan></text>
      <text class="cls-6" transform="translate(39.49 32.62) rotate(-26.5) scale(1.1 1)"><tspan x="0" y="0">A</tspan></text>
      <text class="cls-6" transform="translate(52.05 26.82) rotate(-11.66) scale(1.1 1)"><tspan x="0" y="0">’</tspan></text>
      <text class="cls-6" transform="translate(58.71 25.17) rotate(2.75) scale(1.1 1)"><tspan x="0" y="0">S</tspan></text>
      <text class="cls-6" transform="translate(70.73 26.12) rotate(17.1) scale(1.1 1)"><tspan x="0" y="0"> </tspan></text>
      <text class="cls-6" transform="translate(77.35 27.9) rotate(31.35) scale(1.1 1)"><tspan x="0" y="0">T</tspan></text>
      <text class="cls-6" transform="translate(86.33 32.86) rotate(49.48) scale(1.1 1)"><tspan x="0" y="0">A</tspan></text>
      <text class="cls-6" transform="translate(95.75 43.99) rotate(70.56) scale(1.1 1)"><tspan x="0" y="0">K</tspan></text>
      <text class="cls-6" transform="translate(100.09 56.65) rotate(89.8) scale(1.1 1)"><tspan x="0" y="0">E</tspan></text>
      <text class="cls-6" transform="translate(100.11 68.59) rotate(107.69) scale(1.1 1)"><tspan x="0" y="0">S</tspan></text>
      <circle class="cls-2" cx="62.75" cy="62.75" r="56.9"/>
      <path class="cls-4" d="m41.58,38.28c-14.29,12.43-14.84,34.18-1.69,47.34.42.42.86.92,1.35,1.27.44.26.85-.38.47-.85-.08-.09-.18-.24-.28-.33l-.09-.09c-10.42-9.71-13.18-25.35-6.22-37.77,10.74-19.16,35.54-21.59,49.84-7.29,12.23,12.23,12.23,32.12,0,44.35-1.12,1.12-2.32,2.15-3.56,3.07.08.37.33.68.63.78,1.27-.95,2.49-1.99,3.64-3.15,13.15-13.15,12.6-34.91-1.69-47.34-12.06-10.49-30.33-10.49-42.39,0Z"/>
      <g>
        <path class="cls-7" d="m60.3,99.49l3.92.08c3.17.07,5.82-2.47,5.88-5.64l.12-5.75-2.89-.06c-.96-.02-1.73-.13-1.73-.25l.02-.99c0-.12.78-.2,1.74-.18l2.89.06.03-1.22-2.89-.06c-.96-.02-1.73-.14-1.73-.26l.02-.99c0-.12.78-.2,1.74-.18l2.89.06.02-.88-2.89-.06c-.96-.02-1.74.1-1.73-.26l.02-.99c0-.28.78-.2,1.74-.18l2.89.06.04-1.82c.07-3.17-2.47-5.82-5.64-5.88l-3.92-.08c-3.17-.07-5.82,2.47-5.88,5.64l-.29,13.95c-.07,3.17,2.47,5.82,5.64,5.88Z"/>
        <path class="cls-7" d="m72.97,86.72c-.02-.66-.89-.69-.96-.05l-.15,7.13c-.09,4.37-3.74,7.86-8.1,7.77l-3.08-.06c-4.37-.09-7.86-3.74-7.77-8.1l.15-7.13c-.02-.68-.94-.68-.96,0h0l-.15,7.1c-.1,4.58,3.3,8.43,7.74,9.01,0,.04-.02.07-.03.11l-.11,5.36c-.02,1.03.8,1.88,1.83,1.9l1.34.03c1.03.02,1.88-.8,1.9-1.83l.11-5.36s-.01-.08-.02-.11c4.46-.39,8.02-4.1,8.11-8.68l.15-7.1h0Z"/>
      </g>
      <circle class="cls-5" cx="62.75" cy="62.75" r="62.37"/>
    </g>
  </g>
</svg>